<?xml version="1.0" standalone="no"?>
<!DOCTYPE svg PUBLIC "-//W3C//DTD SVG 20010904//EN" "http://www.w3.org/TR/2001/REC-SVG-20010904/DTD/svg10.dtd">
<svg xmlns="http://www.w3.org/2000/svg" version="1.0" width="1173.000000pt" height="1173.000000pt" viewBox="0 0 1173.000000 1173.000000" preserveAspectRatio="xMidYMid meet">
<metadata>
Created by potrace 1.16, written by Peter Selinger 2001-2019
<meta name="Producer" content="Online-Convert"/></metadata>
<g transform="translate(0.000000,1173.000000) scale(0.100000,-0.100000)">
<path d="M4215 8262 c-28 -3 -35 -14 -110 -170 -44 -92 -173 -360 -288 -597 -222 -457 -474 -979 -772 -1600 -176 -367 -389 -806 -597 -1235 -55 -113 -120 -245 -143 -295 -24 -49 -123 -252 -220 -450 -185 -376 -305 -624 -305 -631 0 -2 248 -3 552 -2 l552 3 13 25 c27 52 137 280 247 513 63 133 148 312 189 397 482 1002 621 1293 882 1835 166 347 330 688 364 759 37 78 65 126 70 120 5 -5 51 -97 101 -204 143 -302 432 -903 599 -1244 83 -170 151 -313 151 -317 0 -5 -260 -9 -578 -9 l-578 0 -25 -52 c-258 -539 -429 -904 -429 -913 0 -3 469 -5 1043 -5 l1042 -1 152 -322 c84 -177 180 -379 213 -449 l59 -128 382 0 381 0 -8 362 c-7 347 -8 364 -30 414 -12 28 -190 398 -395 820 -204 423 -426 882 -492 1019 -237 494 -520 1081 -819 1700 -168 347 -307 636 -309 643 -3 10 -95 13 -434 15 -237 2 -443 1 -460 -1z" style="fill:Acolor;fill-rule:nonzero;"/>
<path d="M7728 8260 l-2197 -5 138 -285 c76 -157 182 -374 235 -482 l97 -198 760 -2 759 -3 0 -1997 0 -1998 505 0 505 0 0 2000 0 2000 669 0 c523 0 671 3 679 13 5 6 47 91 92 187 46 96 147 307 226 469 79 161 144 298 144 302 0 5 -93 8 -207 7 -115 -2 -1197 -5 -2405 -8z" style="fill:Tcolor;fill-rule:nonzero;"/>
</g>
</svg>
